<svg width="169" height="169" viewBox="0 0 169 169" fill="none" xmlns="http://www.w3.org/2000/svg">
<circle cx="84.5" cy="84.5" r="84.5" transform="matrix(1 0 0 -1 0 169)" fill="#BF7D58"/>
<circle cx="76" cy="76" r="76" transform="matrix(1 0 0 -1 8 161)" fill="#A02222"/>
<ellipse cx="19.5" cy="19" rx="19.5" ry="19" transform="matrix(1 0 0 -1 35 146)" fill="#572F2F"/>
<ellipse cx="19.5" cy="19" rx="19.5" ry="19" transform="matrix(1 0 0 -1 92 146)" fill="#572F2F"/>
<ellipse cx="19.5" cy="19" rx="19.5" ry="19" transform="matrix(1 0 0 -1 46 94)" fill="#572F2F"/>
<ellipse cx="19.5" cy="19" rx="19.5" ry="19" transform="matrix(1 0 0 -1 8 98)" fill="#572F2F"/>
<ellipse cx="19" cy="19.5" rx="19" ry="19.5" transform="matrix(1 0 0 -1 106 85)" fill="#572F2F"/>
<circle cx="19" cy="19" r="19" transform="matrix(1 0 0 -1 55 47)" fill="#572F2F"/>
<ellipse cx="74.5" cy="74" rx="74.5" ry="74" transform="matrix(1 0 0 -1 8 157)" fill="#DFAD2D" fill-opacity="0.38"/>
</svg>
