<svg width="170" height="169" viewBox="0 0 170 169" fill="none" xmlns="http://www.w3.org/2000/svg">
<ellipse cx="85" cy="84.5" rx="85" ry="84.5" transform="matrix(1 0 0 -1 0 169)" fill="#E1956B"/>
<circle cx="76" cy="76" r="76" transform="matrix(1 0 0 -1 9 161)" fill="#DB1919"/>
<circle cx="19" cy="19" r="19" transform="matrix(1 0 0 -1 36 146)" fill="#572F2F"/>
<circle cx="19" cy="19" r="19" transform="matrix(1 0 0 -1 93 146)" fill="#572F2F"/>
<circle cx="19" cy="19" r="19" transform="matrix(1 0 0 -1 47 94)" fill="#572F2F"/>
<circle cx="19" cy="19" r="19" transform="matrix(1 0 0 -1 9 98)" fill="#572F2F"/>
<ellipse cx="19" cy="19.5" rx="19" ry="19.5" transform="matrix(1 0 0 -1 107 85)" fill="#572F2F"/>
<ellipse cx="19.5" cy="19" rx="19.5" ry="19" transform="matrix(1 0 0 -1 55 47)" fill="#572F2F"/>
</svg>
