<?xml version="1.0" standalone="no"?>
<!DOCTYPE svg PUBLIC "-//W3C//DTD SVG 20010904//EN"
 "http://www.w3.org/TR/2001/REC-SVG-20010904/DTD/svg10.dtd">
<svg version="1.0" xmlns="http://www.w3.org/2000/svg"
 width="751.000000pt" height="746.000000pt" viewBox="0 0 751.000000 746.000000"
 preserveAspectRatio="xMidYMid meet">

<g transform="translate(0.000000,746.000000) scale(0.100000,-0.100000)"
fill="#000000" stroke="none">
<path d="M270 7265 c-7 -8 -19 -15 -27 -15 -24 0 -63 -47 -63 -76 0 -22 30
-57 145 -174 l145 -146 0 -3144 -1 -3145 -80 -85 c-98 -103 -139 -157 -139
-182 0 -32 56 -144 81 -162 14 -9 43 -16 72 -16 46 0 52 4 110 59 l62 59 49
-45 c59 -53 102 -76 183 -97 55 -14 349 -16 2923 -16 3101 0 2916 -3 3021 51
58 29 152 122 184 181 15 29 29 54 31 56 1 2 34 -28 73 -67 70 -71 70 -71 124
-71 65 0 85 14 121 84 49 94 47 99 -134 281 l-160 161 0 2604 0 2605 -217 217
-218 218 66 67 c36 38 133 138 216 223 356 366 343 352 343 390 0 71 -77 160
-139 160 -21 1 -87 -61 -349 -327 l-322 -328 -343 348 -343 347 -2408 0
c-2160 0 -2414 -2 -2469 -16 -81 -21 -123 -43 -183 -98 l-51 -45 -79 80 -79
79 -66 0 c-47 0 -70 -4 -79 -15z m1210 -626 c0 -390 -1 -411 -17 -398 -32 24
-723 713 -723 720 0 12 50 57 83 73 27 13 79 16 345 16 l312 0 0 -411z m3140
-599 l0 -1010 -971 0 -972 0 -483 482 -484 482 0 528 0 528 1455 0 1455 0 0
-1010z m1282 703 c170 -170 308 -312 308 -317 0 -5 -109 -119 -243 -255 -233
-236 -491 -499 -907 -923 -106 -109 -197 -198 -202 -198 -4 0 -8 450 -8 1000
l0 1000 372 0 373 0 307 -307z m-4810 -510 l388 -388 0 -522 0 -523 527 0 527
0 450 -450 451 -450 -977 0 -978 0 0 -1153 0 -1154 -293 -299 c-162 -164 -336
-343 -387 -396 -51 -54 -97 -98 -101 -98 -5 0 -9 1287 -9 2910 0 1601 3 2910
7 2910 5 0 182 -174 395 -387z m5498 -188 l180 -179 0 -2446 0 -2445 -127 126
c-71 70 -298 294 -505 499 l-378 373 0 963 0 964 -814 2 -815 3 122 125 c66
69 197 203 289 298 92 95 244 251 338 347 93 97 246 254 340 350 205 211 404
416 815 839 171 175 319 329 330 342 10 14 25 23 33 22 7 -2 94 -84 192 -183z
m-4575 -732 c151 -151 275 -276 275 -278 0 -3 -130 -5 -290 -5 l-290 0 0 291
c0 259 2 290 15 279 8 -7 139 -136 290 -287z m2593 -522 c-6 -18 -820 -841
-832 -841 -6 0 -202 191 -436 425 l-425 425 848 0 c509 0 847 -4 845 -9z
m-1100 -1120 c-4 -11 -207 -221 -531 -548 l-230 -233 -134 0 c-152 0 -193 -11
-217 -59 -40 -77 -1 -150 92 -169 l31 -7 -127 -130 c-384 -394 -682 -695 -687
-695 -7 0 -6 1835 2 1843 10 11 1805 8 1801 -2z m2022 -728 l0 -738 -147 146
c-82 80 -410 406 -731 725 -321 318 -587 581 -593 582 -50 18 75 22 731 22
l740 0 0 -737z m-1410 272 l325 -325 -650 0 -650 0 86 88 c330 337 425 435
480 495 34 37 67 67 73 67 6 0 157 -146 336 -325z m982 -982 l428 -428 0 -302
0 -303 -1912 2 -1913 3 -3 86 c-1 47 1 94 5 106 4 11 280 300 612 641 l604
622 876 0 876 0 427 -427z m1168 -1168 l502 -500 -6 -53 c-4 -30 -13 -66 -20
-80 -20 -39 -71 -87 -110 -106 -31 -15 -283 -16 -2918 -14 l-2883 3 -35 24
c-19 13 -42 33 -51 45 -16 20 -10 27 193 236 115 118 282 291 371 383 l162
169 5 -99 5 -98 2135 0 2135 0 3 299 c1 164 4 297 7 295 2 -2 230 -229 505
-504z"/>
<path d="M3200 6040 l0 -560 450 0 450 0 0 560 0 560 -450 0 -450 0 0 -560z
m680 0 l0 -350 -235 0 -235 0 0 350 0 350 235 0 235 0 0 -350z"/>
<path d="M2448 1979 c-33 -12 -68 -66 -68 -103 0 -42 26 -82 64 -100 31 -14
139 -16 1170 -16 1224 0 1183 -2 1220 51 20 30 21 98 0 127 -38 55 21 52
-1216 51 -729 0 -1153 -4 -1170 -10z"/>
</g>
</svg>
